<svg width="318" height="162" viewBox="0 0 318 162" fill="none" xmlns="http://www.w3.org/2000/svg">
<path d="M70.7631 152.473C69.3771 152.473 68.5491 151.807 68.3871 150.547C68.3781 150.493 68.4051 150.466 68.4501 150.466H69.0621C69.1071 150.466 69.1341 150.484 69.1431 150.529C69.2961 151.42 69.8091 151.825 70.7631 151.825C71.6451 151.825 72.1851 151.339 72.1851 150.529C72.1851 149.656 71.6811 149.26 70.5561 149.26H69.9711C69.9261 149.26 69.8991 149.233 69.8991 149.188V148.882C69.8991 148.837 69.9171 148.81 69.9351 148.792L71.7621 146.821V146.785H68.6211C68.5851 146.785 68.5581 146.758 68.5581 146.713V146.2C68.5581 146.155 68.5851 146.128 68.6211 146.128H72.7341C72.7791 146.128 72.8061 146.155 72.8061 146.2V146.569C72.8061 146.614 72.7881 146.641 72.7701 146.659L70.9791 148.612V148.648C72.3111 148.747 72.9591 149.377 72.9591 150.529C72.9591 151.735 72.1131 152.473 70.7631 152.473ZM76.7032 152.473C75.0742 152.473 74.2552 151.411 74.2552 149.278C74.2552 147.145 75.0742 146.083 76.7032 146.083C78.3412 146.083 79.1602 147.154 79.1602 149.278C79.1602 151.402 78.3412 152.473 76.7032 152.473ZM76.7032 151.816C77.8462 151.816 78.3772 151.024 78.3772 149.278C78.3772 147.532 77.8462 146.74 76.7032 146.74C75.5512 146.74 75.0382 147.523 75.0382 149.278C75.0382 151.033 75.5512 151.816 76.7032 151.816ZM82.8626 152.473C81.2336 152.473 80.4146 151.411 80.4146 149.278C80.4146 147.145 81.2336 146.083 82.8626 146.083C84.5006 146.083 85.3196 147.154 85.3196 149.278C85.3196 151.402 84.5006 152.473 82.8626 152.473ZM82.8626 151.816C84.0056 151.816 84.5366 151.024 84.5366 149.278C84.5366 147.532 84.0056 146.74 82.8626 146.74C81.7106 146.74 81.1976 147.523 81.1976 149.278C81.1976 151.033 81.7106 151.816 82.8626 151.816Z" fill="#34353A"/>
<path d="M236.805 146.083C238.236 146.083 239.082 146.884 239.082 148.216C239.082 148.927 238.839 149.548 238.227 150.394L236.796 152.383C236.769 152.41 236.751 152.428 236.706 152.428H236.013C235.95 152.428 235.932 152.383 235.968 152.347L237.57 150.106L237.552 150.079C237.309 150.232 236.958 150.313 236.598 150.313C235.338 150.313 234.528 149.494 234.528 148.216C234.528 146.884 235.374 146.083 236.805 146.083ZM236.805 146.731C235.842 146.731 235.293 147.271 235.293 148.216C235.293 149.143 235.842 149.683 236.805 149.683C237.741 149.683 238.317 149.143 238.317 148.216C238.317 147.271 237.768 146.731 236.805 146.731ZM242.617 152.473C240.988 152.473 240.169 151.411 240.169 149.278C240.169 147.145 240.988 146.083 242.617 146.083C244.255 146.083 245.074 147.154 245.074 149.278C245.074 151.402 244.255 152.473 242.617 152.473ZM242.617 151.816C243.76 151.816 244.291 151.024 244.291 149.278C244.291 147.532 243.76 146.74 242.617 146.74C241.465 146.74 240.952 147.523 240.952 149.278C240.952 151.033 241.465 151.816 242.617 151.816ZM248.776 152.473C247.147 152.473 246.328 151.411 246.328 149.278C246.328 147.145 247.147 146.083 248.776 146.083C250.414 146.083 251.233 147.154 251.233 149.278C251.233 151.402 250.414 152.473 248.776 152.473ZM248.776 151.816C249.919 151.816 250.45 151.024 250.45 149.278C250.45 147.532 249.919 146.74 248.776 146.74C247.624 146.74 247.111 147.523 247.111 149.278C247.111 151.033 247.624 151.816 248.776 151.816Z" fill="#34353A"/>
<path d="M86.8718 109.795C85.4408 109.795 84.5948 108.994 84.5948 107.662C84.5948 106.951 84.8378 106.33 85.4498 105.484L86.8808 103.495C86.9078 103.468 86.9258 103.45 86.9708 103.45H87.6638C87.7268 103.45 87.7448 103.495 87.7088 103.531L86.1068 105.772L86.1248 105.799C86.3678 105.646 86.7188 105.565 87.0788 105.565C88.3388 105.565 89.1488 106.384 89.1488 107.662C89.1488 108.994 88.3028 109.795 86.8718 109.795ZM86.8718 109.147C87.8348 109.147 88.3838 108.607 88.3838 107.662C88.3838 106.735 87.8348 106.195 86.8718 106.195C85.9358 106.195 85.3598 106.735 85.3598 107.662C85.3598 108.607 85.9088 109.147 86.8718 109.147ZM92.8234 109.795C91.4554 109.795 90.6274 109.174 90.4654 107.995C90.4564 107.941 90.4834 107.914 90.5284 107.914H91.1494C91.1854 107.914 91.2124 107.932 91.2214 107.977C91.3834 108.778 91.8874 109.147 92.8234 109.147C93.7414 109.147 94.2634 108.607 94.2634 107.662C94.2634 106.717 93.7864 106.249 92.8324 106.249C92.1934 106.249 91.7164 106.447 91.3744 106.843C91.3474 106.879 91.3114 106.888 91.2844 106.888L90.8974 106.825C90.8524 106.816 90.8434 106.798 90.8434 106.735L91.0504 103.522C91.0504 103.468 91.0864 103.45 91.1224 103.45H94.6684C94.7134 103.45 94.7404 103.477 94.7404 103.522V104.035C94.7404 104.08 94.7134 104.107 94.6684 104.107H91.6714L91.5454 106.096H91.5814C91.9324 105.79 92.4994 105.601 93.0484 105.601C94.3084 105.601 95.0374 106.348 95.0374 107.662C95.0374 108.994 94.2094 109.795 92.8234 109.795ZM98.7816 109.795C97.1526 109.795 96.3336 108.733 96.3336 106.6C96.3336 104.467 97.1526 103.405 98.7816 103.405C100.42 103.405 101.239 104.476 101.239 106.6C101.239 108.724 100.42 109.795 98.7816 109.795ZM98.7816 109.138C99.9246 109.138 100.456 108.346 100.456 106.6C100.456 104.854 99.9246 104.062 98.7816 104.062C97.6296 104.062 97.1166 104.845 97.1166 106.6C97.1166 108.355 97.6296 109.138 98.7816 109.138Z" fill="#34353A"/>
<path d="M124.27 80.252C124.216 80.252 124.189 80.216 124.216 80.162L126.682 74.645V74.609H123.253C123.217 74.609 123.19 74.582 123.19 74.537V74.024C123.19 73.979 123.217 73.952 123.253 73.952H127.465C127.51 73.952 127.537 73.979 127.537 74.024V74.402C127.537 74.429 127.528 74.447 127.519 74.483L125.026 80.198C125.008 80.234 124.99 80.252 124.945 80.252H124.27ZM130.894 80.297C129.265 80.297 128.446 79.235 128.446 77.102C128.446 74.969 129.265 73.907 130.894 73.907C132.532 73.907 133.351 74.978 133.351 77.102C133.351 79.226 132.532 80.297 130.894 80.297ZM130.894 79.64C132.037 79.64 132.568 78.848 132.568 77.102C132.568 75.356 132.037 74.564 130.894 74.564C129.742 74.564 129.229 75.347 129.229 77.102C129.229 78.857 129.742 79.64 130.894 79.64ZM137.053 80.297C135.424 80.297 134.605 79.235 134.605 77.102C134.605 74.969 135.424 73.907 137.053 73.907C138.691 73.907 139.51 74.978 139.51 77.102C139.51 79.226 138.691 80.297 137.053 80.297ZM137.053 79.64C138.196 79.64 138.727 78.848 138.727 77.102C138.727 75.356 138.196 74.564 137.053 74.564C135.901 74.564 135.388 75.347 135.388 77.102C135.388 78.857 135.901 79.64 137.053 79.64Z" fill="#34353A"/>
<path d="M181.525 80.252C181.471 80.252 181.444 80.216 181.471 80.162L183.937 74.645V74.609H180.508C180.472 74.609 180.445 74.582 180.445 74.537V74.024C180.445 73.979 180.472 73.952 180.508 73.952H184.72C184.765 73.952 184.792 73.979 184.792 74.024V74.402C184.792 74.429 184.783 74.447 184.774 74.483L182.281 80.198C182.263 80.234 182.245 80.252 182.2 80.252H181.525ZM187.927 80.297C186.559 80.297 185.731 79.676 185.569 78.497C185.56 78.443 185.587 78.416 185.632 78.416H186.253C186.289 78.416 186.316 78.434 186.325 78.479C186.487 79.28 186.991 79.649 187.927 79.649C188.845 79.649 189.367 79.109 189.367 78.164C189.367 77.219 188.89 76.751 187.936 76.751C187.297 76.751 186.82 76.949 186.478 77.345C186.451 77.381 186.415 77.39 186.388 77.39L186.001 77.327C185.956 77.318 185.947 77.3 185.947 77.237L186.154 74.024C186.154 73.97 186.19 73.952 186.226 73.952H189.772C189.817 73.952 189.844 73.979 189.844 74.024V74.537C189.844 74.582 189.817 74.609 189.772 74.609H186.775L186.649 76.598H186.685C187.036 76.292 187.603 76.103 188.152 76.103C189.412 76.103 190.141 76.85 190.141 78.164C190.141 79.496 189.313 80.297 187.927 80.297ZM193.886 80.297C192.257 80.297 191.438 79.235 191.438 77.102C191.438 74.969 192.257 73.907 193.886 73.907C195.524 73.907 196.343 74.978 196.343 77.102C196.343 79.226 195.524 80.297 193.886 80.297ZM193.886 79.64C195.029 79.64 195.56 78.848 195.56 77.102C195.56 75.356 195.029 74.564 193.886 74.564C192.734 74.564 192.221 75.347 192.221 77.102C192.221 78.857 192.734 79.64 193.886 79.64Z" fill="#34353A"/>
<path d="M219.342 109.795C217.857 109.795 217.038 109.174 217.038 108.067C217.038 107.293 217.497 106.717 218.226 106.528V106.501C217.596 106.249 217.245 105.763 217.245 105.07C217.245 104.035 218.046 103.405 219.342 103.405C220.638 103.405 221.439 104.035 221.439 105.07C221.439 105.763 221.079 106.249 220.458 106.501V106.528C221.187 106.717 221.646 107.293 221.646 108.067C221.646 109.174 220.827 109.795 219.342 109.795ZM219.342 109.147C220.35 109.147 220.881 108.751 220.881 107.986C220.881 107.248 220.368 106.879 219.342 106.879C218.316 106.879 217.803 107.248 217.803 107.986C217.803 108.751 218.325 109.147 219.342 109.147ZM219.342 106.231C220.188 106.231 220.665 105.844 220.665 105.169C220.665 104.44 220.206 104.053 219.342 104.053C218.478 104.053 218.019 104.44 218.019 105.169C218.019 105.844 218.496 106.231 219.342 106.231ZM225.355 109.795C223.726 109.795 222.907 108.733 222.907 106.6C222.907 104.467 223.726 103.405 225.355 103.405C226.993 103.405 227.812 104.476 227.812 106.6C227.812 108.724 226.993 109.795 225.355 109.795ZM225.355 109.138C226.498 109.138 227.029 108.346 227.029 106.6C227.029 104.854 226.498 104.062 225.355 104.062C224.203 104.062 223.69 104.845 223.69 106.6C223.69 108.355 224.203 109.138 225.355 109.138ZM231.514 109.795C229.885 109.795 229.066 108.733 229.066 106.6C229.066 104.467 229.885 103.405 231.514 103.405C233.152 103.405 233.971 104.476 233.971 106.6C233.971 108.724 233.152 109.795 231.514 109.795ZM231.514 109.138C232.657 109.138 233.188 108.346 233.188 106.6C233.188 104.854 232.657 104.062 231.514 104.062C230.362 104.062 229.849 104.845 229.849 106.6C229.849 108.355 230.362 109.138 231.514 109.138Z" fill="#34353A"/>
<path d="M30.2363 68.7833C29.3774 68.9335 28.6317 69.4029 28.1408 70.1164C10.4517 95.8218 1.80536 122.288 0.927507 153.419C0.899189 154.283 1.22012 155.1 1.83367 155.72C2.44722 156.349 3.259 156.687 4.13685 156.687H56.2792C57.9688 156.687 59.3753 155.353 59.4697 153.645C60.4891 136.098 66.1715 119.077 75.9128 104.431C76.8756 102.976 76.5453 101.051 75.1577 100.047L32.6717 69.3466C32.1148 68.9429 31.4634 68.7363 30.7933 68.7363C30.6045 68.7363 30.4251 68.7551 30.2363 68.7833Z" fill="#E7554A"/>
<path d="M242.972 103.98C252.998 118.758 258.834 135.957 259.863 153.729C259.958 155.382 261.377 156.687 263.081 156.687H314.715C315.601 156.687 316.42 156.339 317.039 155.72C317.648 155.1 317.972 154.283 317.953 153.419C317.067 122.288 308.346 95.8124 290.503 70.1164C290.007 69.4029 289.255 68.9335 288.398 68.7833C288.208 68.7551 288.027 68.7363 287.837 68.7363C287.161 68.7363 286.504 68.9429 285.942 69.3466L263.576 85.3725L243.733 99.5865C242.324 100.6 242.001 102.525 242.981 103.98H242.972Z" fill="#075A31"/>
<path d="M195.062 65.3861C211.703 71.5977 226.45 82.2623 237.715 96.2266C238.667 97.4084 240.347 97.6353 241.542 96.7561L283.598 65.8021C284.214 65.3483 284.615 64.677 284.727 63.9112C284.839 63.1454 284.643 62.389 284.176 61.7745C265.164 36.6633 242.606 20.0518 213.15 9.50057C212.842 9.38712 212.524 9.33984 212.216 9.33984C211.787 9.33984 211.367 9.43439 210.975 9.63293C210.294 9.97329 209.78 10.5689 209.547 11.3064L193.335 61.8406C192.868 63.2966 193.624 64.8472 195.062 65.3861Z" fill="#0B8C4C"/>
<path d="M133.462 62.9093C150.357 58.3213 168.602 58.2459 185.516 62.6832C187.188 63.126 188.906 62.2027 189.435 60.5918L205.631 10.8771C205.905 10.0481 205.83 9.1625 205.414 8.38998C205.008 7.61745 204.328 7.06161 203.488 6.81667C188.463 2.40764 173.947 0.203125 159.432 0.203125C144.917 0.203125 130.412 2.40764 115.377 6.81667C114.546 7.06161 113.866 7.61745 113.46 8.38998C113.054 9.1625 112.978 10.0481 113.243 10.8771L129.514 60.8273C130.043 62.4477 131.781 63.3615 133.452 62.9093H133.462Z" fill="#E3B53E"/>
<path d="M109.399 11.5566C109.128 10.7265 108.557 10.0567 107.772 9.66999C107.333 9.45304 106.856 9.33984 106.379 9.33984C106.024 9.33984 105.669 9.40587 105.323 9.5285C76.1115 20.0273 53.6864 36.4593 34.7667 61.2583C34.2433 61.9469 34.0189 62.7959 34.1498 63.6637C34.2713 64.5315 34.7294 65.2956 35.4304 65.8049L77.5511 96.6881C78.9158 97.688 80.8228 97.4145 81.9071 96.075C92.9373 82.4068 107.342 71.8703 123.588 65.5974C125.196 64.9749 126.037 63.2203 125.523 61.6073L109.417 11.5754L109.399 11.5566Z" fill="#F59D33"/>
<path d="M24.0127 124.992C23.9407 124.992 23.9047 124.956 23.9047 124.884V118.8C23.9047 118.728 23.9407 118.692 24.0127 118.692H26.3707C27.9007 118.692 28.7827 119.475 28.7827 120.825C28.7827 122.184 27.9007 122.967 26.3707 122.967H25.3987V124.884C25.3987 124.956 25.3627 124.992 25.2997 124.992H24.0127ZM25.3987 121.815H26.2267C26.9197 121.815 27.2617 121.491 27.2617 120.825C27.2617 120.168 26.9197 119.844 26.2267 119.844H25.3987V121.815ZM32.1799 125.064C30.6859 125.064 29.7139 124.119 29.7139 122.679C29.7139 121.239 30.6859 120.303 32.1799 120.303C33.6739 120.303 34.6549 121.239 34.6549 122.679C34.6549 124.119 33.6739 125.064 32.1799 125.064ZM32.1799 124.029C32.8099 124.029 33.1699 123.561 33.1699 122.679C33.1699 121.806 32.8099 121.329 32.1799 121.329C31.5499 121.329 31.1989 121.806 31.1989 122.679C31.1989 123.561 31.5409 124.029 32.1799 124.029ZM38.1899 125.064C36.6959 125.064 35.7239 124.119 35.7239 122.679C35.7239 121.239 36.6959 120.303 38.1899 120.303C39.6839 120.303 40.6649 121.239 40.6649 122.679C40.6649 124.119 39.6839 125.064 38.1899 125.064ZM38.1899 124.029C38.8199 124.029 39.1799 123.561 39.1799 122.679C39.1799 121.806 38.8199 121.329 38.1899 121.329C37.5599 121.329 37.2089 121.806 37.2089 122.679C37.2089 123.561 37.5509 124.029 38.1899 124.029ZM42.04 124.992C41.977 124.992 41.941 124.956 41.941 124.884V121.815C41.941 120.879 42.454 120.366 43.39 120.366H44.884C44.947 120.366 44.983 120.402 44.983 120.474V121.392C44.983 121.455 44.947 121.491 44.884 121.491H43.399V124.884C43.399 124.956 43.363 124.992 43.3 124.992H42.04Z" fill="white"/>
<path d="M74.8974 58.9453C74.8254 58.9453 74.7894 58.9093 74.7894 58.8373V52.7533C74.7894 52.6813 74.8254 52.6453 74.8974 52.6453H78.9744C79.0374 52.6453 79.0824 52.6813 79.0824 52.7533V53.6893C79.0824 53.7523 79.0374 53.7973 78.9744 53.7973H76.2834V55.3273H78.7944C78.8574 55.3273 78.9024 55.3723 78.9024 55.4353V56.3713C78.9024 56.4433 78.8574 56.4793 78.7944 56.4793H76.2834V58.8373C76.2834 58.9093 76.2474 58.9453 76.1844 58.9453H74.8974ZM81.9976 59.0173C80.7916 59.0173 80.0626 58.1083 80.0626 56.6323C80.0626 55.1383 80.7736 54.2473 81.9976 54.2473C82.5736 54.2473 83.1046 54.5263 83.4016 54.9763H83.4466V54.4273C83.4466 54.3553 83.4826 54.3193 83.5546 54.3193H84.8056C84.8686 54.3193 84.9136 54.3553 84.9136 54.4273V57.9373H85.3366C85.3996 57.9373 85.4356 57.9733 85.4356 58.0453V58.8373C85.4356 58.9093 85.3996 58.9453 85.3366 58.9453H84.2386C83.7526 58.9453 83.5186 58.7383 83.5186 58.3423V58.2973H83.4736C83.2036 58.7383 82.6276 59.0173 81.9976 59.0173ZM82.5376 57.9463C83.1586 57.9463 83.5006 57.4783 83.5006 56.6323C83.5006 55.7953 83.1496 55.3183 82.5376 55.3183C81.9166 55.3183 81.5476 55.7953 81.5476 56.6323C81.5476 57.4783 81.9166 57.9463 82.5376 57.9463ZM86.767 58.9453C86.695 58.9453 86.659 58.9093 86.659 58.8373V54.4273C86.659 54.3553 86.695 54.3193 86.767 54.3193H88.018C88.081 54.3193 88.117 54.3553 88.117 54.4273V58.8373C88.117 58.9093 88.081 58.9453 88.018 58.9453H86.767ZM86.722 53.5903C86.65 53.5903 86.614 53.5543 86.614 53.4913V52.2223C86.614 52.1593 86.65 52.1233 86.722 52.1233H88.063C88.126 52.1233 88.171 52.1593 88.171 52.2223V53.4913C88.171 53.5543 88.126 53.5903 88.063 53.5903H86.722ZM89.7607 58.9453C89.6977 58.9453 89.6617 58.9093 89.6617 58.8373V55.7683C89.6617 54.8323 90.1747 54.3193 91.1107 54.3193H92.6047C92.6677 54.3193 92.7037 54.3553 92.7037 54.4273V55.3453C92.7037 55.4083 92.6677 55.4443 92.6047 55.4443H91.1197V58.8373C91.1197 58.9093 91.0837 58.9453 91.0207 58.9453H89.7607Z" fill="white"/>
<path d="M149.917 35.6462C148.099 35.6462 146.965 34.4042 146.965 32.4152C146.965 30.4712 148.234 29.2022 150.187 29.2022C151.762 29.2022 152.878 30.0662 153.067 31.3982C153.076 31.4702 153.022 31.5062 152.959 31.5062H151.699C151.636 31.5062 151.6 31.4702 151.591 31.4162C151.447 30.7142 150.97 30.3542 150.187 30.3542C149.107 30.3542 148.486 31.0922 148.486 32.4152C148.486 33.7832 149.062 34.4942 150.142 34.4942C150.97 34.4942 151.519 34.0442 151.654 33.2342H150.088C150.016 33.2342 149.98 33.1982 149.98 33.1352V32.2712C149.98 32.1992 150.016 32.1632 150.088 32.1632H152.968C153.031 32.1632 153.076 32.1992 153.076 32.2712V35.4662C153.076 35.5382 153.031 35.5742 152.968 35.5742H151.942C151.879 35.5742 151.834 35.5382 151.834 35.4662V34.7642H151.789C151.465 35.2952 150.727 35.6462 149.917 35.6462ZM156.837 35.6462C155.343 35.6462 154.371 34.7012 154.371 33.2612C154.371 31.8212 155.343 30.8852 156.837 30.8852C158.331 30.8852 159.312 31.8212 159.312 33.2612C159.312 34.7012 158.331 35.6462 156.837 35.6462ZM156.837 34.6112C157.467 34.6112 157.827 34.1432 157.827 33.2612C157.827 32.3882 157.467 31.9112 156.837 31.9112C156.207 31.9112 155.856 32.3882 155.856 33.2612C155.856 34.1432 156.198 34.6112 156.837 34.6112ZM162.847 35.6462C161.353 35.6462 160.381 34.7012 160.381 33.2612C160.381 31.8212 161.353 30.8852 162.847 30.8852C164.341 30.8852 165.322 31.8212 165.322 33.2612C165.322 34.7012 164.341 35.6462 162.847 35.6462ZM162.847 34.6112C163.477 34.6112 163.837 34.1432 163.837 33.2612C163.837 32.3882 163.477 31.9112 162.847 31.9112C162.217 31.9112 161.866 32.3882 161.866 33.2612C161.866 34.1432 162.208 34.6112 162.847 34.6112ZM168.317 35.6462C167.12 35.6462 166.382 34.7372 166.382 33.2612C166.382 31.7672 167.102 30.8762 168.317 30.8762C168.902 30.8762 169.433 31.1552 169.73 31.6052H169.775V29.2022C169.775 29.1302 169.811 29.0942 169.874 29.0942H171.125C171.197 29.0942 171.233 29.1302 171.233 29.2022V35.4662C171.233 35.5382 171.197 35.5742 171.125 35.5742H169.946C169.883 35.5742 169.838 35.5382 169.838 35.4662V34.9262H169.802C169.523 35.3672 168.956 35.6462 168.317 35.6462ZM168.866 34.5752C169.478 34.5752 169.829 34.1072 169.829 33.2612C169.829 32.4242 169.478 31.9472 168.866 31.9472C168.236 31.9472 167.876 32.4242 167.876 33.2612C167.876 34.1072 168.236 34.5752 168.866 34.5752Z" fill="white"/>
<path d="M214.534 58.9453C214.489 58.9453 214.435 58.9273 214.417 58.8553L212.383 52.7623C212.365 52.6903 212.392 52.6453 212.473 52.6453H213.742C213.805 52.6453 213.841 52.6813 213.859 52.7353L215.362 57.6583H215.407L216.91 52.7353C216.928 52.6813 216.964 52.6453 217.027 52.6453H218.269C218.341 52.6453 218.377 52.6903 218.359 52.7623L216.325 58.8553C216.307 58.9183 216.262 58.9453 216.199 58.9453H214.534ZM221.277 59.0173C219.747 59.0173 218.793 58.0993 218.793 56.6323C218.793 55.1743 219.756 54.2473 221.268 54.2473C222.753 54.2473 223.626 55.1293 223.626 56.6233V56.8753C223.626 56.9383 223.59 56.9743 223.518 56.9743H220.287C220.332 57.6403 220.683 58.0183 221.304 58.0183C221.772 58.0183 222.069 57.8293 222.168 57.5143C222.195 57.4423 222.231 57.4243 222.285 57.4243H223.5C223.572 57.4243 223.617 57.4513 223.608 57.5053C223.455 58.4323 222.618 59.0173 221.277 59.0173ZM220.287 56.2453H222.204C222.168 55.6063 221.844 55.2463 221.295 55.2463C220.692 55.2463 220.341 55.5973 220.287 56.2453ZM224.995 58.9453C224.932 58.9453 224.896 58.9093 224.896 58.8373V55.7683C224.896 54.8323 225.409 54.3193 226.345 54.3193H227.839C227.902 54.3193 227.938 54.3553 227.938 54.4273V55.3453C227.938 55.4083 227.902 55.4443 227.839 55.4443H226.354V58.8373C226.354 58.9093 226.318 58.9453 226.255 58.9453H224.995ZM229.741 60.6553C229.678 60.6553 229.642 60.6193 229.642 60.5473V59.7553C229.642 59.6833 229.678 59.6473 229.741 59.6473H232.153V58.3423H232.108C231.91 58.6843 231.406 58.9363 230.884 58.9363C229.714 58.9363 229.138 58.2793 229.138 56.9473V54.4273C229.138 54.3553 229.174 54.3193 229.246 54.3193H230.497C230.56 54.3193 230.596 54.3553 230.596 54.4273V57.0373C230.596 57.5863 230.875 57.8833 231.37 57.8833C231.883 57.8833 232.153 57.5953 232.153 57.0373V54.4273C232.153 54.3553 232.189 54.3193 232.252 54.3193H233.512C233.575 54.3193 233.611 54.3553 233.611 54.4273V59.2243C233.611 60.1513 233.116 60.6553 232.189 60.6553H229.741ZM238.567 60.6553C238.504 60.6553 238.459 60.6193 238.459 60.5473V59.7553C238.459 59.6833 238.504 59.6473 238.567 59.6473H240.97V58.2163H240.925C240.628 58.6663 240.097 58.9363 239.521 58.9363C238.297 58.9363 237.586 58.0633 237.586 56.5963C237.586 55.1383 238.315 54.2473 239.521 54.2473C240.151 54.2473 240.727 54.5263 240.997 54.9673H241.042V54.4273C241.042 54.3553 241.078 54.3193 241.15 54.3193H242.329C242.392 54.3193 242.437 54.3553 242.437 54.4273V59.2243C242.437 60.1513 241.933 60.6553 241.006 60.6553H238.567ZM240.061 57.8743C240.673 57.8743 241.024 57.4063 241.024 56.5963C241.024 55.7773 240.682 55.3183 240.061 55.3183C239.44 55.3183 239.071 55.7773 239.071 56.5963C239.071 57.4063 239.44 57.8743 240.061 57.8743ZM246.229 59.0173C244.735 59.0173 243.763 58.0723 243.763 56.6323C243.763 55.1923 244.735 54.2563 246.229 54.2563C247.723 54.2563 248.704 55.1923 248.704 56.6323C248.704 58.0723 247.723 59.0173 246.229 59.0173ZM246.229 57.9823C246.859 57.9823 247.219 57.5143 247.219 56.6323C247.219 55.7593 246.859 55.2823 246.229 55.2823C245.599 55.2823 245.248 55.7593 245.248 56.6323C245.248 57.5143 245.59 57.9823 246.229 57.9823ZM252.239 59.0173C250.745 59.0173 249.773 58.0723 249.773 56.6323C249.773 55.1923 250.745 54.2563 252.239 54.2563C253.733 54.2563 254.714 55.1923 254.714 56.6323C254.714 58.0723 253.733 59.0173 252.239 59.0173ZM252.239 57.9823C252.869 57.9823 253.229 57.5143 253.229 56.6323C253.229 55.7593 252.869 55.2823 252.239 55.2823C251.609 55.2823 251.258 55.7593 251.258 56.6323C251.258 57.5143 251.6 57.9823 252.239 57.9823ZM257.709 59.0173C256.512 59.0173 255.774 58.1083 255.774 56.6323C255.774 55.1383 256.494 54.2473 257.709 54.2473C258.294 54.2473 258.825 54.5263 259.122 54.9763H259.167V52.5733C259.167 52.5013 259.203 52.4653 259.266 52.4653H260.517C260.589 52.4653 260.625 52.5013 260.625 52.5733V58.8373C260.625 58.9093 260.589 58.9453 260.517 58.9453H259.338C259.275 58.9453 259.23 58.9093 259.23 58.8373V58.2973H259.194C258.915 58.7383 258.348 59.0173 257.709 59.0173ZM258.258 57.9463C258.87 57.9463 259.221 57.4783 259.221 56.6323C259.221 55.7953 258.87 55.3183 258.258 55.3183C257.628 55.3183 257.268 55.7953 257.268 56.6323C257.268 57.4783 257.628 57.9463 258.258 57.9463Z" fill="white"/>
<path d="M260.741 124.992C260.669 124.992 260.633 124.956 260.633 124.884V118.8C260.633 118.728 260.669 118.692 260.741 118.692H264.89C264.953 118.692 264.998 118.728 264.998 118.8V119.736C264.998 119.799 264.953 119.844 264.89 119.844H262.127V121.248H264.71C264.773 121.248 264.818 121.293 264.818 121.356V122.292C264.818 122.355 264.773 122.4 264.71 122.4H262.127V123.84H264.962C265.025 123.84 265.07 123.885 265.07 123.948V124.884C265.07 124.956 265.025 124.992 264.962 124.992H260.741ZM266.275 124.992C266.194 124.992 266.158 124.938 266.212 124.866L267.796 122.652V122.607L266.338 120.492C266.293 120.429 266.32 120.366 266.401 120.366H267.787C267.841 120.366 267.886 120.384 267.913 120.438L268.705 121.725H268.75L269.533 120.438C269.56 120.384 269.605 120.366 269.659 120.366H270.937C271.018 120.366 271.054 120.429 271 120.492L269.533 122.526V122.571L271.135 124.866C271.189 124.938 271.153 124.992 271.072 124.992H269.686C269.632 124.992 269.596 124.974 269.56 124.92L268.642 123.471H268.597L267.661 124.92C267.634 124.974 267.598 124.992 267.544 124.992H266.275ZM274.374 125.064C272.835 125.064 271.881 124.146 271.881 122.679C271.881 121.239 272.871 120.294 274.374 120.294C275.67 120.294 276.507 120.951 276.642 122.022C276.651 122.094 276.606 122.139 276.543 122.139H275.328C275.265 122.139 275.229 122.103 275.22 122.031C275.13 121.536 274.851 121.329 274.374 121.329C273.726 121.329 273.366 121.815 273.366 122.679C273.366 123.561 273.735 124.029 274.374 124.029C274.869 124.029 275.157 123.813 275.265 123.327C275.274 123.264 275.31 123.219 275.373 123.219H276.588C276.651 123.219 276.705 123.255 276.696 123.318C276.543 124.398 275.706 125.064 274.374 125.064ZM280.243 125.064C278.713 125.064 277.759 124.146 277.759 122.679C277.759 121.221 278.722 120.294 280.234 120.294C281.719 120.294 282.592 121.176 282.592 122.67V122.922C282.592 122.985 282.556 123.021 282.484 123.021H279.253C279.298 123.687 279.649 124.065 280.27 124.065C280.738 124.065 281.035 123.876 281.134 123.561C281.161 123.489 281.197 123.471 281.251 123.471H282.466C282.538 123.471 282.583 123.498 282.574 123.552C282.421 124.479 281.584 125.064 280.243 125.064ZM279.253 122.292H281.17C281.134 121.653 280.81 121.293 280.261 121.293C279.658 121.293 279.307 121.644 279.253 122.292ZM285.373 124.992C284.437 124.992 283.924 124.479 283.924 123.534V118.62C283.924 118.548 283.96 118.512 284.032 118.512H285.283C285.346 118.512 285.382 118.548 285.382 118.62V123.984H286.12C286.192 123.984 286.228 124.02 286.228 124.092V124.884C286.228 124.956 286.192 124.992 286.12 124.992H285.373ZM288.791 124.992C287.855 124.992 287.342 124.479 287.342 123.534V118.62C287.342 118.548 287.378 118.512 287.45 118.512H288.701C288.764 118.512 288.8 118.548 288.8 118.62V123.984H289.538C289.61 123.984 289.646 124.02 289.646 124.092V124.884C289.646 124.956 289.61 124.992 289.538 124.992H288.791ZM292.973 125.064C291.443 125.064 290.489 124.146 290.489 122.679C290.489 121.221 291.452 120.294 292.964 120.294C294.449 120.294 295.322 121.176 295.322 122.67V122.922C295.322 122.985 295.286 123.021 295.214 123.021H291.983C292.028 123.687 292.379 124.065 293 124.065C293.468 124.065 293.765 123.876 293.864 123.561C293.891 123.489 293.927 123.471 293.981 123.471H295.196C295.268 123.471 295.313 123.498 295.304 123.552C295.151 124.479 294.314 125.064 292.973 125.064ZM291.983 122.292H293.9C293.864 121.653 293.54 121.293 292.991 121.293C292.388 121.293 292.037 121.644 291.983 122.292ZM296.763 124.992C296.691 124.992 296.655 124.956 296.655 124.884V120.474C296.655 120.402 296.691 120.366 296.763 120.366H297.942C298.005 120.366 298.05 120.402 298.05 120.474V121.023H298.086C298.41 120.546 298.905 120.294 299.526 120.294C300.597 120.294 301.164 120.978 301.164 122.337V124.884C301.164 124.956 301.119 124.992 301.056 124.992H299.805C299.742 124.992 299.697 124.956 299.697 124.884V122.337C299.697 121.689 299.454 121.383 298.914 121.383C298.374 121.383 298.113 121.689 298.113 122.337V124.884C298.113 124.956 298.077 124.992 298.014 124.992H296.763ZM304.511 124.992C303.575 124.992 303.062 124.479 303.062 123.534V121.374H302.342C302.27 121.374 302.234 121.329 302.234 121.266V120.474C302.234 120.402 302.27 120.366 302.342 120.366H303.062V119.097C303.062 119.034 303.098 118.998 303.17 118.998H304.421C304.484 118.998 304.52 119.034 304.52 119.097V120.366H305.573C305.636 120.366 305.681 120.402 305.681 120.474V121.266C305.681 121.329 305.636 121.374 305.573 121.374H304.52V123.984H305.564C305.636 123.984 305.672 124.02 305.672 124.092V124.884C305.672 124.956 305.636 124.992 305.564 124.992H304.511Z" fill="white"/>
</svg>
